# WaveFront *.obj file (generated by CINEMA 4D)

mtllib ./nctcd1.mtl

v 164.62019348144531 -4.34120464324951 0
v 240 0 0
v 215 0 0
v 190 0 0
v 165 0 0
v 238.48077392578125 17.36481857299805 0
v 213.86058044433594 13.02361297607422 0
v 189.24038696289062 8.68240928649902 0
v 164.62019348144531 4.34120464324951 0
v 233.96926879882812 34.2020149230957 0
v 210.47694396972656 25.65151023864746 0
v 186.98463439941406 17.10100746154785 0
v 163.4923095703125 8.55050373077393 0
v 226.6025390625 50 0
v 204.951904296875 37.5 0
v 183.30126953125 25 0
v 161.650634765625 12.5 0
v 216.60444641113281 64.27876281738281 0
v 197.45333862304688 48.20907211303711 0
v 178.30221557617188 32.13938140869141 0
v 159.15110778808594 16.0696907043457 0
v 204.27876281738281 76.60444641113281 0
v 188.20907592773438 57.45333480834961 0
v 172.13937377929688 38.30222320556641 0
v 156.06968688964844 19.1511116027832 0
v 190 86.6025390625 -0.00000000000001
v 177.5 64.951904296875 0
v 165 43.30126953125 0
v 152.5 21.650634765625 0
v 174.20201110839844 93.96926116943359 -0.00000000000001
v 165.65150451660156 70.47694396972656 0
v 157.10101318359375 46.9846305847168 0
v 148.55050659179688 23.4923152923584 0
v 157.36482238769531 98.48077392578125 -0.00000000000001
v 153.02362060546875 73.86058044433594 0
v 148.68240356445312 49.24038696289062 0
v 144.34120178222656 24.62019348144531 0
v 140 100 -0.00000000000001
v 140 75 0
v 140 50 0
v 140 25 0
v 122.63518524169922 98.48077392578125 -0.00000000000001
v 126.97638702392578 73.86058044433594 0
v 131.31759643554688 49.24038696289062 0
v 135.65879821777344 24.62019348144531 0
v 105.79798889160156 93.96926116943359 -0.00000000000001
v 114.34848785400391 70.47694396972656 0
v 122.89899444580078 46.9846305847168 0
v 131.44949340820312 23.4923152923584 0
v 90 86.6025390625 -0.00000000000001
v 102.5 64.951904296875 0
v 115 43.30126953125 0
v 127.5 21.650634765625 0
v 75.72123718261719 76.60444641113281 0
v 91.79093170166016 57.45333480834961 0
v 107.86061859130859 38.30222320556641 0
v 123.93031311035156 19.1511116027832 0
v 63.39555740356445 64.27876281738281 0
v 82.54666900634766 48.20907211303711 0
v 101.69777679443359 32.13938140869141 0
v 120.84889221191406 16.0696907043457 0
v 53.3974609375 50 0
v 75.048095703125 37.5 0
v 96.69873046875 25 0
v 118.349365234375 12.5 0
v 46.03073883056641 34.2020149230957 0
v 69.52305603027344 25.65151023864746 0
v 93.01536560058594 17.10100746154785 0
v 116.50768280029297 8.55050373077393 0
v 41.51922607421875 17.36481857299805 0
v 66.13941955566406 13.02361297607422 0
v 90.75961303710938 8.68240928649902 0
v 115.37980651855469 4.34120464324951 0
v 40 0.00000000000001 0
v 65 0.00000000000001 0
v 90 0.00000000000001 0
v 115 0 0
v 41.51922607421875 -17.36481857299805 0
v 66.13941955566406 -13.02361297607422 0
v 90.75961303710938 -8.68240928649902 0
v 115.37980651855469 -4.34120464324951 0
v 46.03073883056641 -34.2020149230957 0
v 69.52305603027344 -25.65151023864746 0
v 93.01536560058594 -17.10100746154785 0
v 116.50768280029297 -8.55050373077393 0
v 53.3974609375 -50 0
v 75.048095703125 -37.5 0
v 96.69873046875 -25 0
v 118.349365234375 -12.5 0
v 63.39555740356445 -64.27876281738281 0
v 82.54666900634766 -48.20907211303711 0
v 101.69777679443359 -32.13938140869141 0
v 120.84889221191406 -16.0696907043457 0
v 75.72123718261719 -76.60444641113281 0
v 91.79093170166016 -57.45333480834961 0
v 107.86061859130859 -38.30222320556641 0
v 123.93031311035156 -19.1511116027832 0
v 90 -86.6025390625 0.00000000000001
v 102.5 -64.951904296875 0
v 115 -43.30126953125 0
v 127.5 -21.650634765625 0
v 105.79798889160156 -93.96926116943359 0.00000000000001
v 114.34848785400391 -70.47694396972656 0
v 122.89899444580078 -46.9846305847168 0
v 131.44949340820312 -23.4923152923584 0
v 122.63518524169922 -98.48077392578125 0.00000000000001
v 126.97638702392578 -73.86058044433594 0
v 131.31759643554688 -49.24038696289062 0
v 135.65879821777344 -24.62019348144531 0
v 140 -100 0.00000000000001
v 140 -75 0
v 140 -50 0
v 140 -25 0
v 157.36482238769531 -98.48077392578125 0.00000000000001
v 153.02362060546875 -73.86058044433594 0
v 148.68240356445312 -49.24038696289062 0
v 144.34120178222656 -24.62019348144531 0
v 174.20201110839844 -93.96926116943359 0.00000000000001
v 165.65150451660156 -70.47694396972656 0
v 157.10101318359375 -46.9846305847168 0
v 148.55050659179688 -23.4923152923584 0
v 190 -86.6025390625 0.00000000000001
v 177.5 -64.951904296875 0
v 165 -43.30126953125 0
v 152.5 -21.650634765625 0
v 204.27876281738281 -76.60444641113281 0
v 188.20907592773438 -57.45333480834961 0
v 172.13937377929688 -38.30222320556641 0
v 156.06968688964844 -19.1511116027832 0
v 216.60444641113281 -64.27876281738281 0
v 197.45333862304688 -48.20907211303711 0
v 178.30221557617188 -32.13938140869141 0
v 159.15110778808594 -16.0696907043457 0
v 226.6025390625 -50 0
v 204.951904296875 -37.5 0
v 183.30126953125 -25 0
v 161.650634765625 -12.5 0
v 233.96926879882812 -34.2020149230957 0
v 210.47694396972656 -25.65151023864746 0
v 186.98463439941406 -17.10100746154785 0
v 163.4923095703125 -8.55050373077393 0
v 238.48077392578125 -17.36481857299805 0
v 213.86058044433594 -13.02361297607422 0
v 189.24038696289062 -8.68240928649902 0
# 144 vertices

vn 0 0 1
vn 0 0 1
vn 0 0 1
vn 0 0 1
vn 0 0 1
vn 0 0 1
vn 0 0 1
vn 0 0 1
vn 0 0 1
vn 0 0 1
vn 0 0 1
vn 0 0 1
vn 0 0 1
vn 0 0 1
vn 0 0 1
vn 0 0 1
vn 0 0 1
vn 0 0 1
vn 0 0 1
vn 0 0 1
vn 0 0 1
vn 0 0 1
vn 0 0 1
vn 0 0 1
vn 0 0 1
vn 0 0 1
vn 0 0 1
vn 0 0 1
vn 0 0 1
vn 0 0 1
vn 0 0 1
vn 0 0 1
vn 0 0 1
vn 0 0 1
vn 0 0 1
vn 0 0 1
vn 0 0 1
vn 0 0 1
vn 0 0 1
vn 0 0 1
vn 0 0 1
vn 0 0 1
vn 0 0 1
vn 0 0 1
vn 0 0 1
vn 0 0 1
vn 0 0 1
vn 0 0 1
vn 0 0 1
vn 0 0 1
vn 0 0 1
vn 0 0 1
vn 0 0 1
vn 0 0 1
vn 0 0 1
vn 0 0 1
vn 0 0 1
vn 0 0 1
vn 0 0 1
vn 0 0 1
vn 0 0 1
vn 0 0 1
vn 0 0 1
vn 0 0 1
vn 0 0 1
vn 0 0 1
vn 0 0 1
vn 0 0 1
vn 0 0 1
vn 0 0 1
vn 0 0 1
vn 0 0 1
vn 0 0 1
vn 0 0 1
vn 0 0 1
vn 0 0 1
vn 0 0 1
vn 0 0 1
vn 0 0 1
vn 0 0 1
vn 0 0 1
vn 0 0 1
vn 0 0 1
vn 0 0 1
vn 0 0 1
vn 0 0 1
vn 0 0 1
vn 0 0 1
vn 0 0 1
vn 0 0 1
vn 0 0 1
vn 0 0 1
vn 0 0 1
vn 0 0 1
vn 0 0 1
vn 0 0 1
vn 0 0 1
vn 0 0 1
vn 0 0 1
vn 0 0 1
vn 0 0 1
vn 0 0 1
vn 0 0 1
vn 0 0 1
vn 0 0 1
vn 0 0 1
vn 0 0 1
vn 0 0 1
vn 0 0 1
vn 0 0 1
vn 0 0 1
vn 0 0 1
vn 0 0 1
vn 0 0 1
vn 0 0 1
vn 0 0 1
vn 0 0 1
vn 0 0 1
vn 0 0 1
vn 0 0 1
vn 0 0 1
vn 0 0 1
vn 0 0 1
vn 0 0 1
vn 0 0 1
vn 0 0 1
vn 0 0 1
vn 0 0 1
vn 0 0 1
vn 0 0 1
vn 0 0 1
# 131 normals

vt 1 0.5 0
vt 0.875 0.5 0
vt 0.86930286884308 0.56511807441711 0
vt 0.99240386486053 0.58682411909103 0
vt 0.75 0.5 0
vt 0.74620187282562 0.54341202974319 0
vt 0.625 0.5 0
vt 0.62310099601746 0.52170604467392 0
vt 0.74620187282562 0.45658802986145 0
vt 0.62310099601746 0.47829401493073 0
vt 0.85238468647003 0.62825757265091 0
vt 0.96984624862671 0.67101007699966 0
vt 0.73492312431335 0.58550506830215 0
vt 0.61746156215668 0.54275250434875 0
vt 0.86930286884308 0.43488192558289 0
vt 0.8247594833374 0.6875 0
vt 0.93301272392273 0.75 0
vt 0.71650636196136 0.625 0
vt 0.60825312137604 0.5625 0
vt 0.99240386486053 0.41317594051361 0
vt 0.78726661205292 0.74104535579681 0
vt 0.88302218914032 0.82139384746552 0
vt 0.69151103496552 0.66069692373276 0
vt 0.5957555770874 0.5803484916687 0
vt 0.73492312431335 0.41449499130249 0
vt 0.61746156215668 0.45724749565125 0
vt 0.74104535579681 0.78726667165756 0
vt 0.82139372825623 0.88302218914032 0
vt 0.66069686412811 0.6915111541748 0
vt 0.58034837245941 0.5957555770874 0
vt 0.85238468647003 0.37174248695374 0
vt 0.6875 0.82475954294205 0
vt 0.75 0.93301272392273 0
vt 0.625 0.71650636196136 0
vt 0.5625 0.60825318098068 0
vt 0.96984624862671 0.32898998260498 0
vt 0.62825751304626 0.85238474607468 0
vt 0.67101001739502 0.96984630823135 0
vt 0.58550500869751 0.734923183918 0
vt 0.54275250434875 0.61746162176132 0
vt 0.71650636196136 0.375 0
vt 0.60825312137604 0.4375 0
vt 0.56511807441711 0.86930292844772 0
vt 0.58682405948639 0.99240386486053 0
vt 0.54341197013855 0.74620193243027 0
vt 0.52170598506927 0.62310099601746 0
vt 0.8247594833374 0.3125 0
vt 0.5 0.875 0
vt 0.5 1 0
vt 0.5 0.75 0
vt 0.5 0.625 0
vt 0.93301272392273 0.25 0
vt 0.43488192558289 0.86930292844772 0
vt 0.41317588090897 0.99240386486053 0
vt 0.45658797025681 0.74620193243027 0
vt 0.47829395532608 0.62310099601746 0
vt 0.69151103496552 0.33930313587189 0
vt 0.5957555770874 0.41965162754059 0
vt 0.37174242734909 0.85238474607468 0
vt 0.32898992300034 0.96984630823135 0
vt 0.41449493169785 0.734923183918 0
vt 0.45724749565125 0.61746162176132 0
vt 0.78726661205292 0.25895464420319 0
vt 0.3125 0.82475954294205 0
vt 0.25 0.93301272392273 0
vt 0.375 0.71650636196136 0
vt 0.4375 0.60825318098068 0
vt 0.88302218914032 0.17860627174377 0
vt 0.25895464420319 0.78726667165756 0
vt 0.17860618233681 0.88302218914032 0
vt 0.33930307626724 0.6915111541748 0
vt 0.4196515083313 0.5957555770874 0
vt 0.66069686412811 0.30848896503448 0
vt 0.58034837245941 0.4042444229126 0
vt 0.21273332834244 0.74104535579681 0
vt 0.11697778105736 0.82139384746552 0
vt 0.3084888458252 0.66069692373276 0
vt 0.4042444229126 0.5803484916687 0
vt 0.74104535579681 0.21273338794708 0
vt 0.17524045705795 0.6875 0
vt 0.06698729097843 0.75 0
vt 0.28349363803864 0.625 0
vt 0.39174681901932 0.5625 0
vt 0.82139372825623 0.11697781085968 0
vt 0.14761525392532 0.62825757265091 0
vt 0.03015368804336 0.67101007699966 0
vt 0.265076816082 0.58550506830215 0
vt 0.38253837823868 0.54275250434875 0
vt 0.625 0.28349363803864 0
vt 0.5625 0.39174687862396 0
vt 0.13069707155228 0.56511807441711 0
vt 0.00759612303227 0.58682411909103 0
vt 0.25379806756973 0.54341202974319 0
vt 0.37689900398254 0.52170604467392 0
vt 0.6875 0.1752405166626 0
vt 0.125 0.5 0
vt 0 0.5 0
vt 0.25 0.5 0
vt 0.375 0.5 0
vt 0.75 0.06698727607727 0
vt 0.13069707155228 0.43488192558289 0
vt 0.00759612303227 0.41317594051361 0
vt 0.25379806756973 0.45658802986145 0
vt 0.37689900398254 0.47829401493073 0
vt 0.58550500869751 0.26507687568665 0
vt 0.54275250434875 0.38253843784332 0
vt 0.14761525392532 0.37174248695374 0
vt 0.03015368804336 0.32898998260498 0
vt 0.265076816082 0.41449499130249 0
vt 0.38253837823868 0.45724749565125 0
vt 0.62825751304626 0.14761531352997 0
vt 0.17524045705795 0.3125 0
vt 0.06698729097843 0.25 0
vt 0.28349363803864 0.375 0
vt 0.39174681901932 0.4375 0
vt 0.67101001739502 0.03015375137329 0
vt 0.21273332834244 0.25895464420319 0
vt 0.11697778105736 0.17860627174377 0
vt 0.3084888458252 0.33930313587189 0
vt 0.4042444229126 0.41965162754059 0
vt 0.54341197013855 0.25379812717438 0
vt 0.52170598506927 0.37689900398254 0
vt 0.25895464420319 0.21273338794708 0
vt 0.17860618233681 0.11697781085968 0
vt 0.33930307626724 0.30848896503448 0
vt 0.4196515083313 0.4042444229126 0
vt 0.56511807441711 0.13069713115692 0
vt 0.3125 0.1752405166626 0
vt 0.25 0.06698727607727 0
vt 0.375 0.28349363803864 0
vt 0.4375 0.39174687862396 0
vt 0.58682405948639 0.00759613513947 0
vt 0.37174242734909 0.14761531352997 0
vt 0.32898992300034 0.03015375137329 0
vt 0.41449493169785 0.26507687568665 0
vt 0.45724749565125 0.38253843784332 0
vt 0.5 0.25 0
vt 0.5 0.375 0
vt 0.43488192558289 0.13069713115692 0
vt 0.41317588090897 0.00759613513947 0
vt 0.45658797025681 0.25379812717438 0
vt 0.47829395532608 0.37689900398254 0
vt 0.5 0.125 0
vt 0.5 0 0
# 144 texture coordinates

o Disc
usemtl Mat
f 6/4/4 7/3/3 3/2/2 2/1/1
f 7/3/3 8/6/6 4/5/5 3/2/2
f 8/6/6 9/8/8 5/7/7 4/5/5
f 4/5/5 5/7/7 1/10/10 144/9/9
f 10/12/12 11/11/11 7/3/3 6/4/4
f 11/11/11 12/13/13 8/6/6 7/3/3
f 12/13/13 13/14/14 9/8/8 8/6/6
f 3/2/2 4/5/5 144/9/9 143/15/15
f 14/17/17 15/16/16 11/11/11 10/12/12
f 15/16/16 16/18/18 12/13/13 11/11/11
f 16/18/18 17/19/19 13/14/14 12/13/13
f 2/1/1 3/2/2 143/15/15 142/20/20
f 18/22/22 19/21/21 15/16/16 14/17/17
f 19/21/21 20/23/23 16/18/18 15/16/16
f 20/23/23 21/24/24 17/19/19 16/18/18
f 144/9/9 1/10/10 141/26/26 140/25/25
f 22/28/28 23/27/27 19/21/21 18/22/22
f 23/27/27 24/29/29 20/23/23 19/21/21
f 24/29/29 25/30/30 21/24/24 20/23/23
f 143/15/15 144/9/9 140/25/25 139/31/31
f 26/33/33 27/32/32 23/27/27 22/28/28
f 27/32/32 28/34/34 24/29/29 23/27/27
f 28/34/34 29/35/35 25/30/30 24/29/29
f 142/20/20 143/15/15 139/31/31 138/36/36
f 30/38/38 31/37/37 27/32/32 26/33/33
f 31/37/37 32/39/39 28/34/34 27/32/32
f 32/39/39 33/40/40 29/35/35 28/34/34
f 140/25/25 141/26/26 137/42/42 136/41/41
f 34/44/44 35/43/43 31/37/37 30/38/38
f 35/43/43 36/45/45 32/39/39 31/37/37
f 36/45/45 37/46/46 33/40/40 32/39/39
f 139/31/31 140/25/25 136/41/41 135/47/47
f 38/49/49 39/48/48 35/43/43 34/44/44
f 39/48/48 40/50/50 36/45/45 35/43/43
f 40/50/50 41/51/51 37/46/46 36/45/45
f 138/36/36 139/31/31 135/47/47 134/52/52
f 42/54/54 43/53/53 39/48/48 38/49/49
f 43/53/53 44/55/55 40/50/50 39/48/48
f 44/55/55 45/56/56 41/51/51 40/50/50
f 136/41/41 137/42/42 133/58/58 132/57/57
f 46/60/60 47/59/59 43/53/53 42/54/54
f 47/59/59 48/61/61 44/55/55 43/53/53
f 48/61/61 49/62/62 45/56/56 44/55/55
f 135/47/47 136/41/41 132/57/57 131/63/63
f 50/65/65 51/64/64 47/59/59 46/60/60
f 51/64/64 52/66/66 48/61/61 47/59/59
f 52/66/66 53/67/67 49/62/62 48/61/61
f 134/52/52 135/47/47 131/63/63 130/68/68
f 54/70/70 55/69/69 51/64/64 50/65/65
f 55/69/69 56/71/71 52/66/66 51/64/64
f 56/71/71 57/72/72 53/67/67 52/66/66
f 132/57/57 133/58/58 129/74/74 128/73/73
f 58/76/76 59/75/75 55/69/69 54/70/70
f 59/75/75 60/77/77 56/71/71 55/69/69
f 60/77/77 61/78/78 57/72/72 56/71/71
f 131/63/63 132/57/57 128/73/73 127/79/79
f 62/81/81 63/80/80 59/75/75 58/76/76
f 63/80/80 64/82/82 60/77/77 59/75/75
f 64/82/82 65/83/83 61/78/78 60/77/77
f 130/68/68 131/63/63 127/79/79 126/84/84
f 66/86/86 67/85/85 63/80/80 62/81/81
f 67/85/85 68/87/87 64/82/82 63/80/80
f 68/87/87 69/88/88 65/83/83 64/82/82
f 128/73/73 129/74/74 125/90/90 124/89/89
f 70/92/92 71/91/91 67/85/85 66/86/86
f 71/91/91 72/93/93 68/87/87 67/85/85
f 72/93/93 73/94/94 69/88/88 68/87/87
f 127/79/79 128/73/73 124/89/89 123/95/95
f 74/97/1 75/96/2 71/91/91 70/92/92
f 75/96/2 76/98/5 72/93/93 71/91/91
f 76/98/5 77/99/7 73/94/94 72/93/93
f 126/84/84 127/79/79 123/95/95 122/100/96
f 78/102/4 79/101/3 75/96/2 74/97/1
f 79/101/3 80/103/6 76/98/5 75/96/2
f 80/103/6 81/104/97 77/99/7 76/98/5
f 124/89/89 125/90/90 121/106/99 120/105/98
f 82/108/101 83/107/100 79/101/3 78/102/4
f 83/107/100 84/109/13 80/103/6 79/101/3
f 84/109/13 85/110/102 81/104/97 80/103/6
f 123/95/95 124/89/89 120/105/98 119/111/103
f 86/113/17 87/112/16 83/107/100 82/108/101
f 87/112/16 88/114/104 84/109/13 83/107/100
f 88/114/104 89/115/78 85/110/102 84/109/13
f 122/100/96 123/95/95 119/111/103 118/116/105
f 90/118/107 91/117/106 87/112/16 86/113/17
f 91/117/106 92/119/108 88/114/104 87/112/16
f 92/119/108 93/120/109 89/115/78 88/114/104
f 120/105/98 121/106/99 117/122/111 116/121/110
f 94/124/113 95/123/112 91/117/106 90/118/107
f 95/123/112 96/125/114 92/119/108 91/117/106
f 96/125/114 97/126/115 93/120/109 92/119/108
f 119/111/103 120/105/98 116/121/110 115/127/116
f 98/129/118 99/128/117 95/123/112 94/124/113
f 99/128/117 100/130/119 96/125/114 95/123/112
f 100/130/119 101/131/120 97/126/115 96/125/114
f 118/116/105 119/111/103 115/127/116 114/132/121
f 102/134/123 103/133/122 99/128/117 98/129/118
f 103/133/122 104/135/124 100/130/119 99/128/117
f 104/135/124 105/136/125 101/131/120 100/130/119
f 116/121/110 117/122/111 113/138/51 112/137/124
f 106/140/127 107/139/126 103/133/122 102/134/123
f 107/139/126 108/141/128 104/135/124 103/133/122
f 108/141/128 109/142/129 105/136/125 104/135/124
f 115/127/116 116/121/110 112/137/124 111/143/130
f 110/144/131 111/143/130 107/139/126 106/140/127
f 111/143/130 112/137/124 108/141/128 107/139/126
f 112/137/124 113/138/51 109/142/129 108/141/128
f 114/132/121 115/127/116 111/143/130 110/144/131

v -100 -100 20
v -100 100 20
v 100 -100 20
v 100 100 20
v 100 -100 -20
v 100 100 -20
v -100 -100 -20
v -100 100 -20
# 8 vertices

vn 0 0 1
vn 1 0 0
vn 0 0 -1
vn -1 0 0
vn 0 1 0
vn 0 -1 0
# 6 normals

vt 0 0 0
vt 0 1 0
vt 1 1 0
vt 1 0 0
# 4 texture coordinates

o Cube
usemtl default
f 149/148/133 150/147/133 148/146/133 147/145/133

usemtl Mat.1
f 147/148/132 148/147/132 146/146/132 145/145/132

usemtl Mat.2
f 151/148/134 152/147/134 150/146/134 149/145/134
f 145/148/135 146/147/135 152/146/135 151/145/135
f 148/148/136 150/147/136 152/146/136 146/145/136
f 149/148/137 147/147/137 145/146/137 151/145/137

