# WaveFront *.obj file (generated by CINEMA 4D)

mtllib ./engcdmodel.mtl

v 164.62019348144531 -4.34120464324951 0
v 240 0 0
v 215 0 1.18278229236603
v 190 0 1.18278229236603
v 165 0 0
v 238.48077392578125 17.36481857299805 0
v 213.86058044433594 13.02361297607422 1.18278229236603
v 189.24038696289062 8.68240928649902 1.18278229236603
v 164.62019348144531 4.34120464324951 0
v 233.96926879882812 34.2020149230957 0
v 210.47694396972656 25.65151023864746 1.18278229236603
v 186.98463439941406 17.10100746154785 1.18278229236603
v 163.4923095703125 8.55050373077393 0
v 226.6025390625 50 0
v 204.951904296875 37.5 1.18278229236603
v 183.30126953125 25 1.18278229236603
v 161.650634765625 12.5 0
v 216.60444641113281 64.27876281738281 0
v 197.45333862304688 48.20907211303711 1.18278229236603
v 178.30221557617188 32.13938140869141 1.18278229236603
v 159.15110778808594 16.0696907043457 0
v 204.27876281738281 76.60444641113281 0
v 188.20907592773438 57.45333480834961 1.18278229236603
v 172.13937377929688 38.30222320556641 1.18278229236603
v 156.06968688964844 19.1511116027832 0
v 190 86.6025390625 -0.00000000000001
v 177.5 64.951904296875 1.18278229236603
v 165 43.30126953125 1.18278229236603
v 152.5 21.650634765625 0
v 174.20201110839844 93.96926116943359 -0.00000000000001
v 165.65150451660156 70.47694396972656 1.18278229236603
v 157.10101318359375 46.9846305847168 1.18278229236603
v 148.55050659179688 23.4923152923584 0
v 157.36482238769531 98.48077392578125 -0.00000000000001
v 153.02362060546875 73.86058044433594 1.18278229236603
v 148.68240356445312 49.24038696289062 1.18278229236603
v 144.34120178222656 24.62019348144531 0
v 140 100 -0.00000000000001
v 140 75 1.18278229236603
v 140 50 1.18278229236603
v 140 25 0
v 122.63518524169922 98.48077392578125 -0.00000000000001
v 126.97638702392578 73.86058044433594 1.18278229236603
v 131.31759643554688 49.24038696289062 1.18278229236603
v 135.65879821777344 24.62019348144531 0
v 105.79798889160156 93.96926116943359 -0.00000000000001
v 114.34848785400391 70.47694396972656 1.18278229236603
v 122.89899444580078 46.9846305847168 1.18278229236603
v 131.44949340820312 23.4923152923584 0
v 90 86.6025390625 -0.00000000000001
v 102.5 64.951904296875 1.18278229236603
v 115 43.30126953125 1.18278229236603
v 127.5 21.650634765625 0
v 75.72123718261719 76.60444641113281 0
v 91.79093170166016 57.45333480834961 1.18278229236603
v 107.86061859130859 38.30222320556641 1.18278229236603
v 123.93031311035156 19.1511116027832 0
v 63.39555740356445 64.27876281738281 0
v 82.54666900634766 48.20907211303711 1.18278229236603
v 101.69777679443359 32.13938140869141 1.18278229236603
v 120.84889221191406 16.0696907043457 0
v 53.3974609375 50 0
v 75.048095703125 37.5 1.18278229236603
v 96.69873046875 25 1.18278229236603
v 118.349365234375 12.5 0
v 46.03073883056641 34.2020149230957 0
v 69.52305603027344 25.65151023864746 1.18278229236603
v 93.01536560058594 17.10100746154785 1.18278229236603
v 116.50768280029297 8.55050373077393 0
v 41.51922607421875 17.36481857299805 0
v 66.13941955566406 13.02361297607422 1.18278229236603
v 90.75961303710938 8.68240928649902 1.18278229236603
v 115.37980651855469 4.34120464324951 0
v 40 0.00000000000001 0
v 65 0.00000000000001 1.18278229236603
v 90 0.00000000000001 1.18278229236603
v 115 0 0
v 41.51922607421875 -17.36481857299805 0
v 66.13941955566406 -13.02361297607422 1.18278229236603
v 90.75961303710938 -8.68240928649902 1.18278229236603
v 115.37980651855469 -4.34120464324951 0
v 46.03073883056641 -34.2020149230957 0
v 69.52305603027344 -25.65151023864746 1.18278229236603
v 93.01536560058594 -17.10100746154785 1.18278229236603
v 116.50768280029297 -8.55050373077393 0
v 53.3974609375 -50 0
v 75.048095703125 -37.5 1.18278229236603
v 96.69873046875 -25 1.18278229236603
v 118.349365234375 -12.5 0
v 63.39555740356445 -64.27876281738281 0
v 82.54666900634766 -48.20907211303711 1.18278229236603
v 101.69777679443359 -32.13938140869141 1.18278229236603
v 120.84889221191406 -16.0696907043457 0
v 75.72123718261719 -76.60444641113281 0
v 91.79093170166016 -57.45333480834961 1.18278229236603
v 107.86061859130859 -38.30222320556641 1.18278229236603
v 123.93031311035156 -19.1511116027832 0
v 90 -86.6025390625 0.00000000000001
v 102.5 -64.951904296875 1.18278229236603
v 115 -43.30126953125 1.18278229236603
v 127.5 -21.650634765625 0
v 105.79798889160156 -93.96926116943359 0.00000000000001
v 114.34848785400391 -70.47694396972656 1.18278229236603
v 122.89899444580078 -46.9846305847168 1.18278229236603
v 131.44949340820312 -23.4923152923584 0
v 122.63518524169922 -98.48077392578125 0.00000000000001
v 126.97638702392578 -73.86058044433594 1.18278229236603
v 131.31759643554688 -49.24038696289062 1.18278229236603
v 135.65879821777344 -24.62019348144531 0
v 140 -100 0.00000000000001
v 140 -75 1.18278229236603
v 140 -50 1.18278229236603
v 140 -25 0
v 157.36482238769531 -98.48077392578125 0.00000000000001
v 153.02362060546875 -73.86058044433594 1.18278229236603
v 148.68240356445312 -49.24038696289062 1.18278229236603
v 144.34120178222656 -24.62019348144531 0
v 174.20201110839844 -93.96926116943359 0.00000000000001
v 165.65150451660156 -70.47694396972656 1.18278229236603
v 157.10101318359375 -46.9846305847168 1.18278229236603
v 148.55050659179688 -23.4923152923584 0
v 190 -86.6025390625 0.00000000000001
v 177.5 -64.951904296875 1.18278229236603
v 165 -43.30126953125 1.18278229236603
v 152.5 -21.650634765625 0
v 204.27876281738281 -76.60444641113281 0
v 188.20907592773438 -57.45333480834961 1.18278229236603
v 172.13937377929688 -38.30222320556641 1.18278229236603
v 156.06968688964844 -19.1511116027832 0
v 216.60444641113281 -64.27876281738281 0
v 197.45333862304688 -48.20907211303711 1.18278229236603
v 178.30221557617188 -32.13938140869141 1.18278229236603
v 159.15110778808594 -16.0696907043457 0
v 226.6025390625 -50 0
v 204.951904296875 -37.5 1.18278229236603
v 183.30126953125 -25 1.18278229236603
v 161.650634765625 -12.5 0
v 233.96926879882812 -34.2020149230957 0
v 210.47694396972656 -25.65151023864746 1.18278229236603
v 186.98463439941406 -17.10100746154785 1.18278229236603
v 163.4923095703125 -8.55050373077393 0
v 238.48077392578125 -17.36481857299805 0
v 213.86058044433594 -13.02361297607422 1.18278229236603
v 189.24038696289062 -8.68240928649902 1.18278229236603
v 164.62019348144531 -4.34120464324951 1.18278229236603
v 240 0 1.18278229236603
v 165 0 1.18278229236603
v 238.48077392578125 17.36481857299805 1.18278229236603
v 164.62019348144531 4.34120464324951 1.18278229236603
v 233.96926879882812 34.2020149230957 1.18278229236603
v 163.4923095703125 8.55050373077393 1.18278229236603
v 226.6025390625 50 1.18278229236603
v 161.650634765625 12.5 1.18278229236603
v 216.60444641113281 64.27876281738281 1.18278229236603
v 159.15110778808594 16.0696907043457 1.18278229236603
v 204.27876281738281 76.60444641113281 1.18278229236603
v 156.06968688964844 19.1511116027832 1.18278229236603
v 190 86.6025390625 1.18278229236603
v 152.5 21.650634765625 1.18278229236603
v 174.20201110839844 93.96926116943359 1.18278229236603
v 148.55050659179688 23.4923152923584 1.18278229236603
v 157.36482238769531 98.48077392578125 1.18278229236603
v 144.34120178222656 24.62019348144531 1.18278229236603
v 140 100 1.18278229236603
v 140 25 1.18278229236603
v 122.63518524169922 98.48077392578125 1.18278229236603
v 135.65879821777344 24.62019348144531 1.18278229236603
v 105.79798889160156 93.96926116943359 1.18278229236603
v 131.44949340820312 23.4923152923584 1.18278229236603
v 90 86.6025390625 1.18278229236603
v 127.5 21.650634765625 1.18278229236603
v 75.72123718261719 76.60444641113281 1.18278229236603
v 123.93031311035156 19.1511116027832 1.18278229236603
v 63.39555740356445 64.27876281738281 1.18278229236603
v 120.84889221191406 16.0696907043457 1.18278229236603
v 53.3974609375 50 1.18278229236603
v 118.349365234375 12.5 1.18278229236603
v 46.03073883056641 34.2020149230957 1.18278229236603
v 116.50768280029297 8.55050373077393 1.18278229236603
v 41.51922607421875 17.36481857299805 1.18278229236603
v 115.37980651855469 4.34120464324951 1.18278229236603
v 40 0.00000000000001 1.18278229236603
v 115 0 1.18278229236603
v 41.51922607421875 -17.36481857299805 1.18278229236603
v 115.37980651855469 -4.34120464324951 1.18278229236603
v 46.03073883056641 -34.2020149230957 1.18278229236603
v 116.50768280029297 -8.55050373077393 1.18278229236603
v 53.3974609375 -50 1.18278229236603
v 118.349365234375 -12.5 1.18278229236603
v 63.39555740356445 -64.27876281738281 1.18278229236603
v 120.84889221191406 -16.0696907043457 1.18278229236603
v 75.72123718261719 -76.60444641113281 1.18278229236603
v 123.93031311035156 -19.1511116027832 1.18278229236603
v 90 -86.6025390625 1.18278229236603
v 127.5 -21.650634765625 1.18278229236603
v 105.79798889160156 -93.96926116943359 1.18278229236603
v 131.44949340820312 -23.4923152923584 1.18278229236603
v 122.63518524169922 -98.48077392578125 1.18278229236603
v 135.65879821777344 -24.62019348144531 1.18278229236603
v 140 -100 1.18278229236603
v 140 -25 1.18278229236603
v 157.36482238769531 -98.48077392578125 1.18278229236603
v 144.34120178222656 -24.62019348144531 1.18278229236603
v 174.20201110839844 -93.96926116943359 1.18278229236603
v 148.55050659179688 -23.4923152923584 1.18278229236603
v 190 -86.6025390625 1.18278229236603
v 152.5 -21.650634765625 1.18278229236603
v 204.27876281738281 -76.60444641113281 1.18278229236603
v 156.06968688964844 -19.1511116027832 1.18278229236603
v 216.60444641113281 -64.27876281738281 1.18278229236603
v 159.15110778808594 -16.0696907043457 1.18278229236603
v 226.6025390625 -50 1.18278229236603
v 161.650634765625 -12.5 1.18278229236603
v 233.96926879882812 -34.2020149230957 1.18278229236603
v 163.4923095703125 -8.55050373077393 1.18278229236603
v 238.48077392578125 -17.36481857299805 1.18278229236603
# 216 vertices

vn 0 0 1
vn 0.98480778932571 0.17364799976349 0
vn 1 0 0
vn -1 0 0
vn -0.98480761051178 -0.17364881932735 0
vn -0.98480761051178 0.17364881932735 0
vn 0.93969261646271 0.34202012419701 0
vn -0.93969261646271 -0.34202018380165 0
vn 0.86602532863617 0.50000011920929 0
vn -0.86602556705475 -0.4999997317791 0
vn 0.98480778932571 -0.17364799976349 0
vn 0.76604449748993 0.64278757572174 0
vn -0.76604425907135 -0.64278787374496 0
vn -0.93969261646271 0.34202018380165 0
vn 0.64278757572174 0.76604449748993 0
vn -0.64278775453568 -0.76604431867599 0
vn 0.49999991059303 0.86602544784546 0
vn -0.50000029802322 -0.86602520942688 0
vn 0.93969261646271 -0.34202012419701 0
vn 0.34202018380165 0.93969261646271 0
vn -0.34202012419701 -0.93969261646271 0
vn -0.86602556705475 0.4999997317791 0
vn 0.17364825308323 0.98480772972107 0
vn -0.17364805936813 -0.98480778932571 0
vn -0.00000002243712 1 0
vn 0 -1 0
vn 0.86602532863617 -0.50000011920929 0
vn -0.17364822328091 0.98480772972107 0
vn 0.17364805936813 -0.98480778932571 0
vn -0.76604425907135 0.64278787374496 0
vn -0.34202009439468 0.93969261646271 0
vn 0.34202012419701 -0.93969261646271 0
vn -0.49999991059303 0.86602544784546 0
vn 0.50000029802322 -0.86602520942688 0
vn 0.76604449748993 -0.64278757572174 0
vn -0.64278763532639 0.76604443788528 0
vn 0.64278775453568 -0.76604431867599 0
vn -0.64278775453568 0.76604431867599 0
vn -0.76604449748993 0.64278757572174 0
vn 0.76604425907135 -0.64278787374496 0
vn -0.86602538824081 0.5 0
vn 0.86602514982224 -0.50000041723251 0
vn 0.64278757572174 -0.76604449748993 0
vn -0.93969261646271 0.34202018380165 0
vn -0.50000029802322 0.86602520942688 0
vn -0.98480772972107 0.17364820837975 0
vn 0.98480778932571 -0.17364799976349 0
vn -1 0 0
vn 1 0 0
vn 0.49999991059303 -0.86602544784546 0
vn -0.98480772972107 -0.17364820837975 0
vn 0.98480778932571 0.17364799976349 0
vn -0.34202012419701 0.93969261646271 0
vn -0.93969261646271 -0.34202018380165 0
vn -0.86602538824081 -0.5 0
vn 0.86602514982224 0.50000041723251 0
vn 0.34202018380165 -0.93969261646271 0
vn -0.76604449748993 -0.64278757572174 0
vn 0.76604425907135 0.64278787374496 0
vn -0.17364805936813 0.98480778932571 0
vn -0.64278763532639 -0.76604443788528 0
vn 0.64278775453568 0.76604431867599 0
vn -0.49999991059303 -0.86602544784546 0
vn 0.50000029802322 0.86602520942688 0
vn 0.17364825308323 -0.98480772972107 0
vn -0.34202009439468 -0.93969261646271 0
vn 0.34202012419701 0.93969261646271 0
vn 0 1 0
vn -0.17364822328091 -0.98480772972107 0
vn 0.17364805936813 0.98480778932571 0
vn -0.00000002243712 -1 0
# 71 normals

vt 1 0.5 0
vt 0.875 0.5 0
vt 0.86930286884308 0.56511807441711 0
vt 0.99240386486053 0.58682411909103 0
vt 0.75 0.5 0
vt 0.74620187282562 0.54341202974319 0
vt 0.625 0.5 0
vt 0.62310099601746 0.52170604467392 0
vt 0.74620187282562 0.45658802986145 0
vt 0.62310099601746 0.47829401493073 0
vt 0.85238468647003 0.62825757265091 0
vt 0.96984624862671 0.67101007699966 0
vt 0.73492312431335 0.58550506830215 0
vt 0.61746156215668 0.54275250434875 0
vt 0.86930286884308 0.43488192558289 0
vt 0.8247594833374 0.6875 0
vt 0.93301272392273 0.75 0
vt 0.71650636196136 0.625 0
vt 0.60825312137604 0.5625 0
vt 0.99240386486053 0.41317594051361 0
vt 0.78726661205292 0.74104535579681 0
vt 0.88302218914032 0.82139384746552 0
vt 0.69151103496552 0.66069692373276 0
vt 0.5957555770874 0.5803484916687 0
vt 0.73492312431335 0.41449499130249 0
vt 0.61746156215668 0.45724749565125 0
vt 0.74104535579681 0.78726667165756 0
vt 0.82139372825623 0.88302218914032 0
vt 0.66069686412811 0.6915111541748 0
vt 0.58034837245941 0.5957555770874 0
vt 0.85238468647003 0.37174248695374 0
vt 0.6875 0.82475954294205 0
vt 0.75 0.93301272392273 0
vt 0.625 0.71650636196136 0
vt 0.5625 0.60825318098068 0
vt 0.96984624862671 0.32898998260498 0
vt 0.62825751304626 0.85238474607468 0
vt 0.67101001739502 0.96984630823135 0
vt 0.58550500869751 0.734923183918 0
vt 0.54275250434875 0.61746162176132 0
vt 0.71650636196136 0.375 0
vt 0.60825312137604 0.4375 0
vt 0.56511807441711 0.86930292844772 0
vt 0.58682405948639 0.99240386486053 0
vt 0.54341197013855 0.74620193243027 0
vt 0.52170598506927 0.62310099601746 0
vt 0.8247594833374 0.3125 0
vt 0.5 0.875 0
vt 0.5 1 0
vt 0.5 0.75 0
vt 0.5 0.625 0
vt 0.93301272392273 0.25 0
vt 0.43488192558289 0.86930292844772 0
vt 0.41317588090897 0.99240386486053 0
vt 0.45658797025681 0.74620193243027 0
vt 0.47829395532608 0.62310099601746 0
vt 0.69151103496552 0.33930313587189 0
vt 0.5957555770874 0.41965162754059 0
vt 0.37174242734909 0.85238474607468 0
vt 0.32898992300034 0.96984630823135 0
vt 0.41449493169785 0.734923183918 0
vt 0.45724749565125 0.61746162176132 0
vt 0.78726661205292 0.25895464420319 0
vt 0.3125 0.82475954294205 0
vt 0.25 0.93301272392273 0
vt 0.375 0.71650636196136 0
vt 0.4375 0.60825318098068 0
vt 0.88302218914032 0.17860627174377 0
vt 0.25895464420319 0.78726667165756 0
vt 0.17860618233681 0.88302218914032 0
vt 0.33930307626724 0.6915111541748 0
vt 0.4196515083313 0.5957555770874 0
vt 0.66069686412811 0.30848896503448 0
vt 0.58034837245941 0.4042444229126 0
vt 0.21273332834244 0.74104535579681 0
vt 0.11697778105736 0.82139384746552 0
vt 0.3084888458252 0.66069692373276 0
vt 0.4042444229126 0.5803484916687 0
vt 0.74104535579681 0.21273338794708 0
vt 0.17524045705795 0.6875 0
vt 0.06698729097843 0.75 0
vt 0.28349363803864 0.625 0
vt 0.39174681901932 0.5625 0
vt 0.82139372825623 0.11697781085968 0
vt 0.14761525392532 0.62825757265091 0
vt 0.03015368804336 0.67101007699966 0
vt 0.265076816082 0.58550506830215 0
vt 0.38253837823868 0.54275250434875 0
vt 0.625 0.28349363803864 0
vt 0.5625 0.39174687862396 0
vt 0.13069707155228 0.56511807441711 0
vt 0.00759612303227 0.58682411909103 0
vt 0.25379806756973 0.54341202974319 0
vt 0.37689900398254 0.52170604467392 0
vt 0.6875 0.1752405166626 0
vt 0.125 0.5 0
vt 0 0.5 0
vt 0.25 0.5 0
vt 0.375 0.5 0
vt 0.75 0.06698727607727 0
vt 0.13069707155228 0.43488192558289 0
vt 0.00759612303227 0.41317594051361 0
vt 0.25379806756973 0.45658802986145 0
vt 0.37689900398254 0.47829401493073 0
vt 0.58550500869751 0.26507687568665 0
vt 0.54275250434875 0.38253843784332 0
vt 0.14761525392532 0.37174248695374 0
vt 0.03015368804336 0.32898998260498 0
vt 0.265076816082 0.41449499130249 0
vt 0.38253837823868 0.45724749565125 0
vt 0.62825751304626 0.14761531352997 0
vt 0.17524045705795 0.3125 0
vt 0.06698729097843 0.25 0
vt 0.28349363803864 0.375 0
vt 0.39174681901932 0.4375 0
vt 0.67101001739502 0.03015375137329 0
vt 0.21273332834244 0.25895464420319 0
vt 0.11697778105736 0.17860627174377 0
vt 0.3084888458252 0.33930313587189 0
vt 0.4042444229126 0.41965162754059 0
vt 0.54341197013855 0.25379812717438 0
vt 0.52170598506927 0.37689900398254 0
vt 0.25895464420319 0.21273338794708 0
vt 0.17860618233681 0.11697781085968 0
vt 0.33930307626724 0.30848896503448 0
vt 0.4196515083313 0.4042444229126 0
vt 0.56511807441711 0.13069713115692 0
vt 0.3125 0.1752405166626 0
vt 0.25 0.06698727607727 0
vt 0.375 0.28349363803864 0
vt 0.4375 0.39174687862396 0
vt 0.58682405948639 0.00759613513947 0
vt 0.37174242734909 0.14761531352997 0
vt 0.32898992300034 0.03015375137329 0
vt 0.41449493169785 0.26507687568665 0
vt 0.45724749565125 0.38253843784332 0
vt 0.5 0.25 0
vt 0.5 0.375 0
vt 0.43488192558289 0.13069713115692 0
vt 0.41317588090897 0.00759613513947 0
vt 0.45658797025681 0.25379812717438 0
vt 0.47829395532608 0.37689900398254 0
vt 0.5 0.125 0
vt 0.5 0 0
# 144 texture coordinates

o Disc
usemtl Mat
f 148/4/1 7/3/1 3/2/1 146/1/1
f 7/3/1 8/6/1 4/5/1 3/2/1
f 8/6/1 149/8/1 147/7/1 4/5/1
f 4/5/1 147/7/1 145/10/1 144/9/1
f 150/12/1 11/11/1 7/3/1 148/4/1
f 11/11/1 12/13/1 8/6/1 7/3/1
f 12/13/1 151/14/1 149/8/1 8/6/1
f 3/2/1 4/5/1 144/9/1 143/15/1
f 152/17/1 15/16/1 11/11/1 150/12/1
f 15/16/1 16/18/1 12/13/1 11/11/1
f 16/18/1 153/19/1 151/14/1 12/13/1
f 146/1/1 3/2/1 143/15/1 216/20/1
f 154/22/1 19/21/1 15/16/1 152/17/1
f 19/21/1 20/23/1 16/18/1 15/16/1
f 20/23/1 155/24/1 153/19/1 16/18/1
f 144/9/1 145/10/1 215/26/1 140/25/1
f 156/28/1 23/27/1 19/21/1 154/22/1
f 23/27/1 24/29/1 20/23/1 19/21/1
f 24/29/1 157/30/1 155/24/1 20/23/1
f 143/15/1 144/9/1 140/25/1 139/31/1
f 158/33/1 27/32/1 23/27/1 156/28/1
f 27/32/1 28/34/1 24/29/1 23/27/1
f 28/34/1 159/35/1 157/30/1 24/29/1
f 216/20/1 143/15/1 139/31/1 214/36/1
f 160/38/1 31/37/1 27/32/1 158/33/1
f 31/37/1 32/39/1 28/34/1 27/32/1
f 32/39/1 161/40/1 159/35/1 28/34/1
f 140/25/1 215/26/1 213/42/1 136/41/1
f 162/44/1 35/43/1 31/37/1 160/38/1
f 35/43/1 36/45/1 32/39/1 31/37/1
f 36/45/1 163/46/1 161/40/1 32/39/1
f 139/31/1 140/25/1 136/41/1 135/47/1
f 164/49/1 39/48/1 35/43/1 162/44/1
f 39/48/1 40/50/1 36/45/1 35/43/1
f 40/50/1 165/51/1 163/46/1 36/45/1
f 214/36/1 139/31/1 135/47/1 212/52/1
f 166/54/1 43/53/1 39/48/1 164/49/1
f 43/53/1 44/55/1 40/50/1 39/48/1
f 44/55/1 167/56/1 165/51/1 40/50/1
f 136/41/1 213/42/1 211/58/1 132/57/1
f 168/60/1 47/59/1 43/53/1 166/54/1
f 47/59/1 48/61/1 44/55/1 43/53/1
f 48/61/1 169/62/1 167/56/1 44/55/1
f 135/47/1 136/41/1 132/57/1 131/63/1
f 170/65/1 51/64/1 47/59/1 168/60/1
f 51/64/1 52/66/1 48/61/1 47/59/1
f 52/66/1 171/67/1 169/62/1 48/61/1
f 212/52/1 135/47/1 131/63/1 210/68/1
f 172/70/1 55/69/1 51/64/1 170/65/1
f 55/69/1 56/71/1 52/66/1 51/64/1
f 56/71/1 173/72/1 171/67/1 52/66/1
f 132/57/1 211/58/1 209/74/1 128/73/1
f 174/76/1 59/75/1 55/69/1 172/70/1
f 59/75/1 60/77/1 56/71/1 55/69/1
f 60/77/1 175/78/1 173/72/1 56/71/1
f 131/63/1 132/57/1 128/73/1 127/79/1
f 176/81/1 63/80/1 59/75/1 174/76/1
f 63/80/1 64/82/1 60/77/1 59/75/1
f 64/82/1 177/83/1 175/78/1 60/77/1
f 210/68/1 131/63/1 127/79/1 208/84/1
f 178/86/1 67/85/1 63/80/1 176/81/1
f 67/85/1 68/87/1 64/82/1 63/80/1
f 68/87/1 179/88/1 177/83/1 64/82/1
f 128/73/1 209/74/1 207/90/1 124/89/1
f 180/92/1 71/91/1 67/85/1 178/86/1
f 71/91/1 72/93/1 68/87/1 67/85/1
f 72/93/1 181/94/1 179/88/1 68/87/1
f 127/79/1 128/73/1 124/89/1 123/95/1
f 182/97/1 75/96/1 71/91/1 180/92/1
f 75/96/1 76/98/1 72/93/1 71/91/1
f 76/98/1 183/99/1 181/94/1 72/93/1
f 208/84/1 127/79/1 123/95/1 206/100/1
f 184/102/1 79/101/1 75/96/1 182/97/1
f 79/101/1 80/103/1 76/98/1 75/96/1
f 80/103/1 185/104/1 183/99/1 76/98/1
f 124/89/1 207/90/1 205/106/1 120/105/1
f 186/108/1 83/107/1 79/101/1 184/102/1
f 83/107/1 84/109/1 80/103/1 79/101/1
f 84/109/1 187/110/1 185/104/1 80/103/1
f 123/95/1 124/89/1 120/105/1 119/111/1
f 188/113/1 87/112/1 83/107/1 186/108/1
f 87/112/1 88/114/1 84/109/1 83/107/1
f 88/114/1 189/115/1 187/110/1 84/109/1
f 206/100/1 123/95/1 119/111/1 204/116/1
f 190/118/1 91/117/1 87/112/1 188/113/1
f 91/117/1 92/119/1 88/114/1 87/112/1
f 92/119/1 191/120/1 189/115/1 88/114/1
f 120/105/1 205/106/1 203/122/1 116/121/1
f 192/124/1 95/123/1 91/117/1 190/118/1
f 95/123/1 96/125/1 92/119/1 91/117/1
f 96/125/1 193/126/1 191/120/1 92/119/1
f 119/111/1 120/105/1 116/121/1 115/127/1
f 194/129/1 99/128/1 95/123/1 192/124/1
f 99/128/1 100/130/1 96/125/1 95/123/1
f 100/130/1 195/131/1 193/126/1 96/125/1
f 204/116/1 119/111/1 115/127/1 202/132/1
f 196/134/1 103/133/1 99/128/1 194/129/1
f 103/133/1 104/135/1 100/130/1 99/128/1
f 104/135/1 197/136/1 195/131/1 100/130/1
f 116/121/1 203/122/1 201/138/1 112/137/1
f 198/140/1 107/139/1 103/133/1 196/134/1
f 107/139/1 108/141/1 104/135/1 103/133/1
f 108/141/1 199/142/1 197/136/1 104/135/1
f 115/127/1 116/121/1 112/137/1 111/143/1
f 200/144/1 111/143/1 107/139/1 198/140/1
f 111/143/1 112/137/1 108/141/1 107/139/1
f 112/137/1 201/138/1 199/142/1 108/141/1
f 202/132/1 115/127/1 111/143/1 200/144/1
f 146/1/3 2/1/3 6/4/2 148/4/2
f 149/8/5 9/8/5 5/7/4 147/7/4
f 147/7/4 5/7/4 1/10/6 145/10/6
f 148/4/2 6/4/2 10/12/7 150/12/7
f 151/14/8 13/14/8 9/8/5 149/8/5
f 150/12/7 10/12/7 14/17/9 152/17/9
f 153/19/10 17/19/10 13/14/8 151/14/8
f 216/20/11 142/20/11 2/1/3 146/1/3
f 152/17/9 14/17/9 18/22/12 154/22/12
f 155/24/13 21/24/13 17/19/10 153/19/10
f 145/10/6 1/10/6 141/26/14 215/26/14
f 154/22/12 18/22/12 22/28/15 156/28/15
f 157/30/16 25/30/16 21/24/13 155/24/13
f 156/28/15 22/28/15 26/33/17 158/33/17
f 159/35/18 29/35/18 25/30/16 157/30/16
f 214/36/19 138/36/19 142/20/11 216/20/11
f 158/33/17 26/33/17 30/38/20 160/38/20
f 161/40/21 33/40/21 29/35/18 159/35/18
f 215/26/14 141/26/14 137/42/22 213/42/22
f 160/38/20 30/38/20 34/44/23 162/44/23
f 163/46/24 37/46/24 33/40/21 161/40/21
f 162/44/23 34/44/23 38/49/25 164/49/25
f 165/51/26 41/51/26 37/46/24 163/46/24
f 212/52/27 134/52/27 138/36/19 214/36/19
f 164/49/25 38/49/25 42/54/28 166/54/28
f 167/56/29 45/56/29 41/51/26 165/51/26
f 213/42/22 137/42/22 133/58/30 211/58/30
f 166/54/28 42/54/28 46/60/31 168/60/31
f 169/62/32 49/62/32 45/56/29 167/56/29
f 168/60/31 46/60/31 50/65/33 170/65/33
f 171/67/34 53/67/34 49/62/32 169/62/32
f 210/68/35 130/68/35 134/52/27 212/52/27
f 170/65/33 50/65/33 54/70/36 172/70/36
f 173/72/37 57/72/37 53/67/34 171/67/34
f 211/58/30 133/58/30 129/74/38 209/74/38
f 172/70/36 54/70/36 58/76/39 174/76/39
f 175/78/40 61/78/40 57/72/37 173/72/37
f 174/76/39 58/76/39 62/81/41 176/81/41
f 177/83/42 65/83/42 61/78/40 175/78/40
f 208/84/43 126/84/43 130/68/35 210/68/35
f 176/81/41 62/81/41 66/86/44 178/86/44
f 179/88/19 69/88/19 65/83/42 177/83/42
f 209/74/38 129/74/38 125/90/45 207/90/45
f 178/86/44 66/86/44 70/92/46 180/92/46
f 181/94/47 73/94/47 69/88/19 179/88/19
f 180/92/46 70/92/46 74/97/48 182/97/48
f 183/99/49 77/99/49 73/94/47 181/94/47
f 206/100/50 122/100/50 126/84/43 208/84/43
f 182/97/48 74/97/48 78/102/51 184/102/51
f 185/104/52 81/104/52 77/99/49 183/99/49
f 207/90/45 125/90/45 121/106/53 205/106/53
f 184/102/51 78/102/51 82/108/54 186/108/54
f 187/110/7 85/110/7 81/104/52 185/104/52
f 186/108/54 82/108/54 86/113/55 188/113/55
f 189/115/56 89/115/56 85/110/7 187/110/7
f 204/116/57 118/116/57 122/100/50 206/100/50
f 188/113/55 86/113/55 90/118/58 190/118/58
f 191/120/59 93/120/59 89/115/56 189/115/56
f 205/106/53 121/106/53 117/122/60 203/122/60
f 190/118/58 90/118/58 94/124/61 192/124/61
f 193/126/62 97/126/62 93/120/59 191/120/59
f 192/124/61 94/124/61 98/129/63 194/129/63
f 195/131/64 101/131/64 97/126/62 193/126/62
f 202/132/65 114/132/65 118/116/57 204/116/57
f 194/129/63 98/129/63 102/134/66 196/134/66
f 197/136/67 105/136/67 101/131/64 195/131/64
f 203/122/60 117/122/60 113/138/68 201/138/68
f 196/134/66 102/134/66 106/140/69 198/140/69
f 199/142/70 109/142/70 105/136/67 197/136/67
f 198/140/69 106/140/69 110/144/71 200/144/71
f 201/138/68 113/138/68 109/142/70 199/142/70
f 200/144/71 110/144/71 114/132/65 202/132/65

v -100 -100 20
v -100 100 20
v 100 -100 20
v 100 100 20
v 100 -100 -20
v 100 100 -20
v -100 -100 -20
v -100 100 -20
# 8 vertices

vn 1 0 0
vn 0 0 -1
vn -1 0 0
# 3 normals

vt 0 0 0
vt 0 1 0
vt 1 1 0
vt 1 0 0
# 4 texture coordinates

o Cube
usemtl Mat.1
f 219/148/1 220/147/1 218/146/1 217/145/1

usemtl Mat.2
f 221/148/72 222/147/72 220/146/72 219/145/72
f 223/148/73 224/147/73 222/146/73 221/145/73
f 217/148/74 218/147/74 224/146/74 223/145/74
f 220/148/68 222/147/68 224/146/68 218/145/68
f 221/148/26 219/147/26 217/146/26 223/145/26

